Coordinates
version=1
nRows=5
nColumns=40
inDegrees=yes

Units are S.I. units (second, meters, Newtons, ...)
Angles are in degrees.

endheader
time	pelvis_tilt	pelvis_list	pelvis_rotation	pelvis_tx	pelvis_ty	pelvis_tz	hip_flexion_r	hip_adduction_r	hip_rotation_r	knee_angle_r	knee_angle_r_beta	ankle_angle_r	subtalar_angle_r	mtp_angle_r	hip_flexion_l	hip_adduction_l	hip_rotation_l	knee_angle_l	knee_angle_l_beta	ankle_angle_l	subtalar_angle_l	mtp_angle_l	lumbar_extension	lumbar_bending	lumbar_rotation	arm_flex_r	arm_add_r	arm_rot_r	elbow_flex_r	pro_sup_r	wrist_flex_r	wrist_dev_r	arm_flex_l	arm_add_l	arm_rot_l	elbow_flex_l	pro_sup_l	wrist_flex_l	wrist_dev_l
     40.44242857	     -4.17355440	     -5.99734085	      3.82107140	      0.95451737	      0.92098676	      0.49203893	     -1.49711474	      6.41330648	    -18.48013849	      9.17433510	      9.17433510	     17.10824303	      7.61500256	     -2.93030280	     31.32145140	     -8.46219183	     -2.18688215	     21.23438509	     21.23438509	      3.50157007	     -8.37631059	      8.40343766	     -6.73374771	      7.31114603	      5.29559620	     37.91995980	    -14.78584228	     -4.10956837	    109.04713345	     43.85866004	      0.00000000	      0.00000000	    -10.59014785	     -7.15464551	      3.69687295	     25.96790770	     44.72049375	      0.00000000	      0.00000000
     40.45485714	     -4.08784822	     -5.83272649	      3.54949525	      0.95544295	      0.91995280	      0.49037901	     -2.01929265	      6.07947705	    -18.12488327	      9.54513191	      9.54513191	     17.60603537	      7.45650417	     -2.95723367	     30.74863320	     -8.20223170	     -1.75527704	     22.31649517	     22.31649517	      3.56070864	     -8.84545136	      8.15473625	     -6.68191011	      7.08281847	      5.19914829	     37.37364820	    -14.78118177	     -3.97181666	    109.12454910	     43.85634941	      0.00000000	      0.00000000	    -10.29389110	     -7.14591238	      3.70462430	     26.11169222	     44.72842248	      0.00000000	      0.00000000
     40.46728571	     -4.03831457	     -5.68553512	      3.29547334	      0.95630875	      0.91898462	      0.48862734	     -2.41380666	      5.73161321	    -17.72356536	     10.06669699	     10.06669699	     18.07180914	      7.15796207	     -2.95057461	     30.28915179	     -7.92501235	     -1.28681149	     23.33764094	     23.33764094	      3.74249553	     -9.50425733	      7.87234097	     -6.60436704	      6.88593756	      5.09943642	     36.63425337	    -14.88078574	     -3.78066933	    109.19635551	     43.85217619	      0.00000000	      0.00000000	     -9.90793382	     -7.16690392	      3.68635338	     26.31109943	     44.74229660	      0.00000000	      0.00000000
     40.47971429	     -4.16761091	     -5.51372421	      3.05658612	      0.95689086	      0.91803521	      0.48659326	     -2.39219920	      5.29119716	    -17.09039576	     10.97687946	     10.97687946	     18.68285530	      6.32485320	     -2.48737964	     30.02136688	     -7.50783695	     -0.60892601	     24.12313147	     24.12313147	      3.78498284	    -10.73357581	      7.52355433	     -6.39166042	      6.68898046	      5.28316667	     35.51828710	    -15.56436283	     -3.52675784	    109.59329225	     43.85448345	      0.00000000	      0.00000000	     -9.30010389	     -7.18671478	      3.58569505	     26.66633422	     44.78572736	      0.00000000	      0.00000000
     40.49214286	     -4.05658561	     -5.33868544	      2.89364187	      0.95772562	      0.91776677	      0.48441788	     -2.91599879	      4.89806811	    -16.84403084	     11.34066850	     11.34066850	     18.90622991	      6.19723987	     -2.45707984	     29.56641335	     -7.20419414	     -0.39940456	     24.91836947	     24.91836947	      4.25753913	    -11.23802473	      7.16829687	     -6.42886003	      6.49612185	      5.00957678	     34.47437342	    -15.54322093	     -3.36628402	    109.35042346	     43.85783364	      0.00000000	      0.00000000	     -8.73470996	     -7.21707707	      3.56373344	     26.85699912	     44.80207284	      0.00000000	      0.00000000
